<?xml version="1.0" standalone="no"?>
<!DOCTYPE svg PUBLIC "-//W3C//DTD SVG 20010904//EN"
 "http://www.w3.org/TR/2001/REC-SVG-20010904/DTD/svg10.dtd">
<svg version="1.0" xmlns="http://www.w3.org/2000/svg"
 width="700.000000pt" height="700.000000pt" viewBox="0 0 700.000000 700.000000"
 preserveAspectRatio="xMidYMid meet">
<metadata>
Created by potrace 1.14, written by Peter Selinger 2001-2017
</metadata>
<g transform="translate(0.000000,700.000000) scale(0.100000,-0.100000)"
fill="#000000" stroke="none">
<path d="M190 6983 c-63 -21 -120 -71 -155 -134 l-30 -54 0 -3290 c0 -2816 2
-3295 14 -3325 23 -57 75 -113 132 -145 l54 -30 575 0 575 0 0 2710 c1 2506 2
2713 18 2748 37 84 103 146 181 169 31 9 685 12 2741 13 l2700 1 0 574 c0 573
0 575 -22 616 -34 64 -71 103 -127 132 l-51 27 -3280 2 c-2952 2 -3284 1
-3325 -14z"/>
<path d="M2893 4272 c-62 -25 -124 -82 -153 -138 l-25 -49 -3 -1925 c-3 -2177
-10 -1979 79 -2071 86 -89 47 -84 699 -84 l575 0 1 1340 c0 737 4 1358 8 1381
11 62 82 146 153 180 l58 29 1357 0 1358 0 0 553 c0 362 -4 568 -11 596 -16
63 -75 136 -139 171 l-55 30 -1930 2 c-1808 2 -1933 1 -1972 -15z"/>
</g>
</svg>
